# xmcd
#
# Track frame offsets:
#	150
#	17319
#	34617
#	48996
#	72636
#	86090
#	107171
#	127945
#	151669
#	174680
#	196580
#	221517
#	239930
#
# Disc length: 3499 seconds
#
# Revision: 1
# Processed by: cddbd v1.5.2PL0 Copyright (c) Steve Scherf et al.
# Submitted via: audiograbber 1.83.01
#
DISCID=aa0da90d
DTITLE=Mary Chapin Carpenter - The Things That We Are Made Of
DYEAR=2016
DGENRE=Country
TTITLE0=Something Tamed Something Wild
TTITLE1=The Middle Ages
TTITLE2=What Does It Mean To Travel
TTITLE3=Livingston
TTITLE4=Map Of My Heart
TTITLE5=Oh Rosetta
TTITLE6=Deep Deep Down Heart
TTITLE7=Hand On My Back
TTITLE8=The Blue Distance
TTITLE9=Note On A Windshield
TTITLE10=The Things That We Are Made Of
TTITLE11=Between The Wars (Charleston 1937) (Bonus)
TTITLE12=88 Constellations (Bonus)
EXTD=
EXTT0=
EXTT1=
EXTT2=
EXTT3=
EXTT4=
EXTT5=
EXTT6=
EXTT7=
EXTT8=
EXTT9=
EXTT10=
EXTT11=
EXTT12=
PLAYORDER=
